<svg width="160" height="160" viewBox="0 0 160 160" fill="none" xmlns="http://www.w3.org/2000/svg">
<path d="M62.7746 45.866C94.6945 42.5182 118.665 43.6377 115.667 82.4163C114.418 98.5708 114.603 107.813 97.5875 114.848C68.4111 117.557 42.374 118.331 44.8801 81.3083C46.0936 63.4038 43.0951 54.1631 62.7746 45.866Z" fill="black"/>
<path d="M68.4551 68.6973L91.7575 68.6885L91.7663 92.1067H68.5254L68.4551 68.6973Z" fill="#EFEFED"/>
<path d="M22.0176 115.235L45.1528 115.244L45.1704 138.768L22.0176 138.759V115.235Z" fill="black"/>
<path d="M22.0088 22.0017L45.1617 22L45.1793 45.4473L22 45.4376L22.0088 22.0017Z" fill="black"/>
<path d="M115.236 22.002L138.328 22.0195L138.336 45.4572L115.201 45.4413L115.236 22.002Z" fill="black"/>
<path d="M115.324 115.262H138.336L138.319 138.759L115.201 138.724L115.324 115.262Z" fill="black"/>
</svg>
