<svg width="160" height="160" viewBox="0 0 160 160" fill="none" xmlns="http://www.w3.org/2000/svg">
<path d="M68.6826 21.667L92.1873 21.6951L92.1785 45.1477L68.6738 45.1029L68.6826 21.667Z" fill="black"/>
<path d="M68.7881 114.919L92.1784 114.928L92.1872 138.452L68.6914 138.381L68.7881 114.919Z" fill="black"/>
<path d="M22.1299 21.6709L45.4939 21.6823L45.4587 45.1305L22.1035 45.1235L22.1299 21.6709Z" fill="black"/>
<path d="M22.1572 68.3545L45.5123 68.3457L45.486 91.8344L22.1836 91.7991L22.1572 68.3545Z" fill="black"/>
<path d="M115.481 68.3369H138.774L138.739 91.8344L115.437 91.8432L115.481 68.3369Z" fill="black"/>
<path d="M115.498 114.928L138.792 114.954L138.774 138.434L115.445 138.416L115.498 114.928Z" fill="black"/>
<path d="M68.8142 68.2842L92.1694 68.3369L92.1782 91.7992L68.823 91.8256C68.6119 84.0957 68.7702 76.0404 68.8142 68.2842Z" fill="black"/>
<path d="M115.48 21.6663L138.748 21.6602L138.721 45.0424L115.41 45.074L115.48 21.6663Z" fill="black"/>
<path d="M22.2534 114.945L45.4943 114.91L45.4766 138.425L22.1919 138.416C22.1127 130.643 22.2182 122.737 22.2534 114.945Z" fill="black"/>
</svg>
