<svg width="160" height="160" viewBox="0 0 160 160" fill="none" xmlns="http://www.w3.org/2000/svg">
<path d="M91.1387 91.4941L91.1396 91.4961L91.0957 114.785L67.8105 114.786L67.9072 138.293C60.2484 138.1 52.1852 138.283 44.4912 138.336L44.5176 114.792L21.3115 114.778L21.3291 91.5332L44.5088 91.5547V68.1719L67.8633 68.2012L67.8809 91.5293L91.1387 91.4941Z" fill="black"/>
<path d="M91.1315 21.5586L114.531 21.5867L114.548 45.0199L137.683 44.8212L137.692 68.2149L114.531 68.1946L114.575 91.5672L91.1403 91.495L91.1227 68.2061L67.8643 68.1999L67.8555 44.8282L91.0963 45.0138L91.1315 21.5586Z" fill="black"/>
<path d="M114.557 114.781L137.666 114.776L137.683 138.333L114.539 138.288L114.557 114.781Z" fill="black"/>
<path d="M21.3818 21.5752L44.482 21.5945V45.0119L21.3906 44.9574L21.3818 21.5752Z" fill="black"/>
</svg>
