<svg width="160" height="160" viewBox="0 0 160 160" fill="none" xmlns="http://www.w3.org/2000/svg">
<path d="M137.691 115.083L137.665 138.562L21.3291 138.554C21.3027 130.718 21.3554 122.874 21.4873 115.039L137.691 115.083Z" fill="black"/>
<path d="M67.873 45.3379V68.4473L91.0957 68.4561L91.0781 91.874L67.8809 91.8652L67.8721 68.4482L44.4912 68.457L44.5176 45.3203L67.873 45.3379Z" fill="black"/>
<path d="M114.53 45.3105L114.548 68.4912L91.0957 68.4561L91.1133 45.293L114.53 45.3105Z" fill="black"/>
<path d="M44.5176 45.3203H21.3115L21.373 21.876L44.4912 21.8496L44.5176 45.3203Z" fill="black"/>
<path d="M137.692 45.3193L114.53 45.3105L114.565 21.8926H137.692V45.3193Z" fill="black"/>
</svg>
