<svg width="160" height="160" viewBox="0 0 160 160" fill="none" xmlns="http://www.w3.org/2000/svg">
<path d="M68.7605 21.4414L92.0602 21.4678L92.0637 44.726L115.369 44.6662L115.371 68.0572L138.565 68.0599L138.65 91.4878L115.355 91.3251L115.386 114.676L92.0391 114.686L92.2475 138.081C84.505 137.941 76.5171 138.015 68.7508 137.986L68.7587 114.69L45.4906 114.671L45.5416 91.3981L22.1152 91.341L22.1267 68.0625L45.4766 68.0449L45.5073 44.7216L68.7596 44.6688L68.7605 21.4414Z" fill="black"/>
<path d="M22.127 114.679L45.4906 114.671L45.5472 137.962L22.1366 137.985L22.127 114.679Z" fill="black"/>
<path d="M115.386 114.676L138.623 114.687L138.696 138.034L115.354 138.023L115.386 114.676Z" fill="black"/>
<path d="M22.1299 21.4199L45.4217 21.4428L45.4024 44.6518L22.1325 44.6773L22.1299 21.4199Z" fill="black"/>
<path d="M115.395 21.4307L138.589 21.4641L138.649 44.7258L115.369 44.6662L115.395 21.4307Z" fill="black"/>
</svg>
